<svg width="20" height="20" viewBox="0 0 20 20" fill="none" xmlns="http://www.w3.org/2000/svg">
<path d="M7.71319 14.7395C7.62386 14.7395 7.54346 14.7217 7.45413 14.6859C7.20401 14.5877 7.04321 14.3375 7.04321 14.0695V8.70971C7.04321 8.34346 7.34694 8.03973 7.71319 8.03973C8.07945 8.03973 8.38317 8.34346 8.38317 8.70971V12.4527L9.02635 11.8095C9.28541 11.5504 9.71419 11.5504 9.97325 11.8095C10.2323 12.0685 10.2323 12.4973 9.97325 12.7564L8.18664 14.543C8.06158 14.6681 7.88292 14.7395 7.71319 14.7395Z" fill="white"/>
<path d="M7.71265 14.7394C7.54293 14.7394 7.3732 14.6769 7.2392 14.5429L5.45259 12.7563C5.19354 12.4972 5.19354 12.0685 5.45259 11.8094C5.71165 11.5503 6.14044 11.5503 6.3995 11.8094L8.18611 13.596C8.44516 13.8551 8.44516 14.2839 8.18611 14.5429C8.05211 14.6769 7.88238 14.7394 7.71265 14.7394Z" fill="white"/>
<path d="M13.073 19.206H7.71315C2.86251 19.206 0.790039 17.1336 0.790039 12.2829V6.92311C0.790039 2.07247 2.86251 0 7.71315 0H12.1797C12.5459 0 12.8497 0.303724 12.8497 0.669978C12.8497 1.03623 12.5459 1.33996 12.1797 1.33996H7.71315C3.59502 1.33996 2.13 2.80498 2.13 6.92311V12.2829C2.13 16.4011 3.59502 17.8661 7.71315 17.8661H13.073C17.1911 17.8661 18.6561 16.4011 18.6561 12.2829V7.81641C18.6561 7.45016 18.9599 7.14644 19.3261 7.14644C19.6924 7.14644 19.9961 7.45016 19.9961 7.81641V12.2829C19.9961 17.1336 17.9236 19.206 13.073 19.206Z" fill="white"/>
<path d="M19.3261 8.48639H15.7528C12.6977 8.48639 11.5096 7.29829 11.5096 4.24319V0.669972C11.5096 0.401981 11.6704 0.151855 11.9206 0.0535919C12.1707 -0.0536046 12.4565 0.00892664 12.6531 0.196521L19.7995 7.34296C19.9871 7.53055 20.0496 7.82535 19.9424 8.07547C19.8352 8.3256 19.594 8.48639 19.3261 8.48639ZM12.8496 2.28685V4.24319C12.8496 6.54791 13.4481 7.14643 15.7528 7.14643H17.7092L12.8496 2.28685Z" fill="white"/>
</svg>
